<svg width="12" height="12" viewBox="0 0 12 12" fill="current" xmlns="http://www.w3.org/2000/svg">
<path fill-rule="evenodd" clip-rule="evenodd" d="M5.98378 0.277659C6.08934 0.464958 6.07503 0.696792 5.94723 0.869685C5.41961 1.58349 5.16572 2.46297 5.23173 3.34815C5.29774 4.23333 5.67927 5.06542 6.30692 5.69308C6.93458 6.32073 7.76667 6.70226 8.65185 6.76827C9.53703 6.83428 10.4165 6.58039 11.1303 6.05277C11.3032 5.92498 11.535 5.91066 11.7223 6.01622C11.9096 6.12178 12.0175 6.32751 11.9977 6.5416C11.8926 7.67859 11.4659 8.76215 10.7675 9.66548C10.069 10.5688 9.1278 11.2545 8.05388 11.6425C6.97995 12.0304 5.81775 12.1044 4.70328 11.8559C3.58881 11.6074 2.56816 11.0466 1.76076 10.2392C0.953353 9.43184 0.392594 8.41119 0.144093 7.29672C-0.104407 6.18225 -0.030371 5.02005 0.35754 3.94613C0.74545 2.8722 1.43119 1.93095 2.33452 1.23253C3.23785 0.534109 4.32141 0.107396 5.4584 0.00232348C5.67249 -0.0174607 5.87822 0.090359 5.98378 0.277659ZM4.46305 1.31774C3.93806 1.4918 3.44359 1.75398 3.00179 2.09557C2.26238 2.66725 1.70108 3.43769 1.38357 4.31673C1.06605 5.19578 1.00545 6.14707 1.20885 7.05931C1.41226 7.97154 1.87126 8.80697 2.53214 9.46786C3.19303 10.1287 4.02847 10.5877 4.9407 10.7911C5.85293 10.9946 6.80422 10.934 7.68327 10.6164C8.56231 10.2989 9.33275 9.73762 9.90443 8.99821C10.246 8.55641 10.5082 8.06195 10.6823 7.53695C10.0162 7.79873 9.29495 7.91017 8.57073 7.85616C7.42498 7.77072 6.34795 7.27688 5.53553 6.46447C4.72312 5.65205 4.22928 4.57503 4.14384 3.42928C4.08983 2.70505 4.20127 1.98377 4.46305 1.31774Z" fill="#current"/>
</svg>
