<svg width="14" height="14" viewBox="0 0 14 14" fill="current" stroke="current" xmlns="http://www.w3.org/2000/svg">
<path d="M7.58328 0.583339C7.58328 0.261169 7.32211 -1.40825e-08 6.99994 0C6.67777 1.40824e-08 6.4166 0.261169 6.4166 0.583338L6.41661 1.75001C6.41661 2.07218 6.67777 2.33335 6.99994 2.33335C7.32211 2.33335 7.58328 2.07218 7.58328 1.75001V0.583339Z" fill="current"/>
<path d="M2.87401 2.04904C2.6462 1.82124 2.27685 1.82124 2.04905 2.04904C1.82124 2.27685 1.82124 2.6462 2.04905 2.87401L2.87739 3.70235C3.10519 3.93016 3.47454 3.93016 3.70235 3.70235C3.93016 3.47454 3.93016 3.10519 3.70235 2.87738L2.87401 2.04904Z" fill="current"/>
<path d="M11.9507 2.87401C12.1785 2.6462 12.1785 2.27685 11.9507 2.04904C11.7229 1.82124 11.3535 1.82124 11.1257 2.04904L10.2974 2.87738C10.0695 3.10519 10.0695 3.47454 10.2974 3.70235C10.5252 3.93016 10.8945 3.93016 11.1223 3.70235L11.9507 2.87401Z" fill="current"/>
<path d="M0.583338 6.4166C0.26117 6.4166 -1.40824e-08 6.67777 0 6.99994C1.40824e-08 7.32211 0.26117 7.58328 0.583338 7.58328L1.75001 7.58328C2.07218 7.58328 2.33335 7.32211 2.33335 6.99994C2.33335 6.67777 2.07218 6.4166 1.75001 6.4166L0.583338 6.4166Z" fill="current"/>
<path d="M12.25 6.4166C11.9278 6.4166 11.6666 6.67777 11.6666 6.99994C11.6666 7.32211 11.9278 7.58328 12.25 7.58328L13.4167 7.58328C13.7388 7.58328 14 7.32211 14 6.99994C14 6.67777 13.7388 6.4166 13.4167 6.4166L12.25 6.4166Z" fill="current"/>
<path d="M3.70235 11.1223C3.93016 10.8945 3.93016 10.5252 3.70235 10.2974C3.47454 10.0695 3.10519 10.0695 2.87739 10.2974L2.04905 11.1257C1.82124 11.3535 1.82124 11.7228 2.04905 11.9507C2.27685 12.1785 2.6462 12.1785 2.87401 11.9507L3.70235 11.1223Z" fill="current"/>
<path d="M11.1223 10.2974C10.8945 10.0695 10.5252 10.0695 10.2974 10.2974C10.0695 10.5252 10.0695 10.8945 10.2974 11.1223L11.1257 11.9507C11.3535 12.1785 11.7229 12.1785 11.9507 11.9507C12.1785 11.7228 12.1785 11.3535 11.9507 11.1257L11.1223 10.2974Z" fill="current"/>
<path d="M7.58328 12.25C7.58328 11.9278 7.32211 11.6666 6.99994 11.6666C6.67777 11.6666 6.4166 11.9278 6.4166 12.25L6.41661 13.4167C6.41661 13.7388 6.67777 14 6.99994 14C7.32211 14 7.58328 13.7388 7.58328 13.4167L7.58328 12.25Z" fill="current"/>
<path fill-rule="evenodd" clip-rule="evenodd" d="M10.7699 6.99994C10.7699 9.08163 9.08237 10.7692 7.00068 10.7692C4.91899 10.7692 3.23145 9.08163 3.23145 6.99994C3.23145 4.91825 4.91899 3.23071 7.00068 3.23071C9.08237 3.23071 10.7699 4.91825 10.7699 6.99994ZM9.76991 6.99994C9.76991 8.52935 8.53008 9.76917 7.00068 9.76917C5.47127 9.76917 4.23145 8.52935 4.23145 6.99994C4.23145 5.47054 5.47127 4.23071 7.00068 4.23071C8.53008 4.23071 9.76991 5.47054 9.76991 6.99994Z" fill="current"/>
</svg>
